<svg width="88" height="84" viewBox="0 0 88 84" fill="none" xmlns="http://www.w3.org/2000/svg">
<path d="M88 41.96L78.24 30.8L79.6 16.04L65.16 12.76L57.6 0L44 5.84L30.4 0L22.84 12.76L8.4 16L9.76 30.8L0 41.96L9.76 53.12L8.4 67.92L22.84 71.2L30.4 84L44 78.12L57.6 83.96L65.16 71.2L79.6 67.92L78.24 53.16L88 41.96ZM72.2 47.88L69.96 50.48L70.28 53.88L71 61.68L63.4 63.4L60.04 64.16L58.28 67.12L54.32 73.84L47.2 70.76L44 69.4L40.84 70.76L33.72 73.84L29.76 67.16L28 64.2L24.64 63.44L17.04 61.72L17.76 53.88L18.08 50.48L15.84 47.88L10.68 42L15.84 36.08L18.08 33.48L17.72 30.04L17 22.28L24.6 20.56L27.96 19.8L29.72 16.84L33.68 10.12L40.8 13.2L44 14.56L47.16 13.2L54.28 10.12L58.24 16.84L60 19.8L63.36 20.56L70.96 22.28L70.24 30.08L69.92 33.48L72.16 36.08L77.32 41.96L72.2 47.88Z" fill="#FAF53A"/>
<path d="M36.3602 49.0005L27.0802 39.6805L21.1602 45.6405L36.3602 60.8805L65.7202 31.4405L59.8002 25.4805L36.3602 49.0005Z" fill="#FAF53A"/>
</svg>
